<?xml version="1.0" encoding="utf-8"?>
<!-- Generator: Adobe Illustrator 14.0.0, SVG Export Plug-In . SVG Version: 6.00 Build 43363)  -->
<!DOCTYPE svg PUBLIC "-//W3C//DTD SVG 1.1//EN" "http://www.w3.org/Graphics/SVG/1.1/DTD/svg11.dtd">
<svg version="1.1" id="Layer_1" xmlns="http://www.w3.org/2000/svg" xmlns:xlink="http://www.w3.org/1999/xlink" x="0px" y="0px"
	 width="800px" height="600px" viewBox="0 0 800 600" enable-background="new 0 0 800 600" xml:space="preserve">
<g id="XMLID_2_">
	<path fill="#FFFFFF" d="M582.132,21.999c0,185.833,0,371.667,0,557.501c-129.033,0-258.066,0-387.099,0
		c0-184.849,0-369.697,0-554.546c-0.083-1.396-0.165-2.791,0.985-2.955C324.723,21.999,453.427,21.999,582.132,21.999z
		 M516.138,322.419c6.115-9.604,1.929-23.394-2.955-32.505c-2.586-0.943-8.454-1.887-10.835,0
		c-11.245-13.05-22.408-26.184-31.52-41.369c14.692-20.562-25.076-41.493-40.384-23.64c-6.156-2.708-10.753-6.977-19.7-6.895
		c2.258-4.022-1.683-9.152-2.955-12.805c12.066-0.739,16.047-9.563,26.595-11.82c8.126-12.148,13.298-31.684,9.85-52.204
		c8.578-13.092,9.645-33.694,13.79-51.219c2.955-2.955,8.454-3.365,10.835-6.895c-19.125,0.944-38.373,10.178-48.265,23.64
		c-11.286-15.678-31.766-13.79-44.324-4.925c-5.622,3.981-8.372,12.395-13.789,13.79c-9.275,2.421-14.734-1.929-19.7-4.925
		c-10.055-5.992-20.562-17.607-25.609-28.565c-3.119-6.813-0.821-15.185-6.895-19.7c-10.424,13.461,2.216,32.587,3.94,43.339
		c1.396,8.742-1.313,18.181,0.985,25.61c3.365,10.917,15.719,13.708,21.67,18.714c0.82,10.014,5.458,16.211,7.879,24.625
		c-0.164-3.119-0.041-5.951,1.971-6.895c6.525,4.35-1.602,17.319,4.925,21.669c-3.858-1.724-5.294-5.869-6.896-9.85
		c-4.268,3.734-0.287,10.67-0.984,16.745c-1.231,3.694-4.392,5.458-4.926,9.85c9.275,1.396,11.656-9.316,15.76-9.85
		c2.422,8.742,3.448,14.405,4.926,22.655c4.186,2.914,13.338,2.339,17.729,0c3.981-2.586,4.679-8.455,10.835-8.865
		c0.082,6.485,5.048,8.085,6.895,12.805c-4.637,0.697-8.701,6.279-13.789,6.895c-3.858,0.452-8.127-1.929-11.82-1.97
		c-28.441-0.37-38.455,28.523-12.805,42.354c-3.037,9.768-3.816,21.793-7.88,30.534c-8.987-17.237-12.559-30.985-33.489-36.444
		c-9.85-2.544-21.095-6.649-31.52-2.955c-7.634,2.709-9.439,12.477-17.73,11.82c-2.585,5.048-8.29,10.835-4.925,18.715
		c-10.917,19.166-13.379,48.511-10.835,72.889c1.149,11.245,4.843,16.334,8.865,24.625c5.828,12.065,18.428,36.896,26.595,40.384
		c20.603,8.865,49.085,6.238,63.039-9.85c9.151-10.548,8.987-27.744,12.805-45.31c0.985-4.597,3.447-8.618,3.94-12.805
		c1.313-11.45-2.299-21.382-0.985-31.52c1.149-8.7,6.484-15.103,9.85-23.64c1.806,17.278,18.387,24.953,19.7,39.399
		c-5.295-2.832-15.227-6.197-21.67-1.97c7.921,11.778,21.67,17.729,33.489,25.609c-4.679,0.739-6.771-1.108-10.835-0.985
		c-5.869,2.381-13.953,7.798-14.774,13.79c-2.75,20.11-8.947,46.582-13.79,65.994c-10.219,2.339-26.143-0.615-32.504,2.955
		c7.305,14.282,26.676,25.076,46.294,20.685c7.06-16.581,13.79-33.489,22.654-48.265c-0.164,14.898-5.007,25.938-1.97,41.37
		c4.35,5.417,3.283,11.778,6.895,16.744c4.31,5.91,12.559,8.331,18.715,12.805c6.607,4.802,10.835,11.204,17.729,13.79
		c-0.164,6.074,4.967,6.854,6.896,10.835c-7.306,1.683-6.361,9.932-13.79,11.819c-7.265,1.847-16.375-5.992-20.685,1.971
		c-1.19,3.201,2.791,4.227,4.925,5.909c1.765,1.396,4.31,3.981,5.91,4.925c20.972,12.271,25.773-3.939,40.384-13.789
		c5.5-3.694,9.892-3.201,12.805-7.88c-2.134-20.85-22.203-23.763-31.52-37.43c-1.724-10.753-8.372-16.581-14.774-22.654
		c2.627-21.67,14.528-34.064,20.685-52.204c8.085-2.668,18.1-3.612,22.655-9.851c2.913-4.021,1.148-9.357,4.925-13.789
		c8.823,0.369,11.081,7.305,15.76,11.819c3.611,0,7.223,0,10.834,0c4.679-2.709,4.926-13.502,2.955-19.699
		c-11.655-0.575-19.125-1.806-26.594-7.88c11.655-10.999,17.442-27.867,23.639-44.324
		C511.746,325.251,514.045,323.938,516.138,322.419z"/>
	<path d="M513.183,289.914c4.884,9.111,9.07,22.901,2.955,32.505c-2.093,1.519-4.392,2.832-6.896,3.94
		c-6.196,16.457-11.983,33.325-23.639,44.324c7.469,6.074,14.938,7.305,26.594,7.88c1.971,6.197,1.724,16.99-2.955,19.699
		c-3.611,0-7.223,0-10.834,0c-4.679-4.515-6.937-11.45-15.76-11.819c-3.776,4.432-2.012,9.768-4.925,13.789
		c-4.556,6.238-14.57,7.183-22.655,9.851c-6.156,18.14-18.058,30.534-20.685,52.204c6.402,6.073,13.051,11.901,14.774,22.654
		c9.316,13.667,29.386,16.58,31.52,37.43c-2.913,4.679-7.305,4.186-12.805,7.88c-14.61,9.85-19.412,26.061-40.384,13.789
		c-1.601-0.943-4.146-3.529-5.91-4.925c-2.134-1.683-6.115-2.708-4.925-5.909c4.31-7.963,13.42-0.124,20.685-1.971
		c7.429-1.888,6.484-10.137,13.79-11.819c-1.929-3.981-7.06-4.761-6.896-10.835c-6.895-2.586-11.122-8.988-17.729-13.79
		c-6.156-4.474-14.405-6.895-18.715-12.805c-3.611-4.966-2.545-11.327-6.895-16.744c-3.037-15.432,1.806-26.472,1.97-41.37
		c-8.864,14.775-15.595,31.684-22.654,48.265c-19.618,4.392-38.989-6.402-46.294-20.685c6.361-3.57,22.285-0.616,32.504-2.955
		c4.843-19.412,11.04-45.884,13.79-65.994c0.821-5.992,8.905-11.409,14.774-13.79c4.063-0.123,6.156,1.725,10.835,0.985
		c-11.819-7.88-25.568-13.831-33.489-25.609c6.443-4.228,16.375-0.862,21.67,1.97c-1.313-14.446-17.895-22.121-19.7-39.399
		c-3.365,8.537-8.7,14.939-9.85,23.64c-1.313,10.138,2.298,20.069,0.985,31.52c-0.493,4.187-2.955,8.208-3.94,12.805
		c-3.817,17.565-3.653,34.762-12.805,45.31c-13.954,16.088-42.437,18.715-63.039,9.85c-8.167-3.488-20.767-28.318-26.595-40.384
		c-4.022-8.291-7.715-13.38-8.865-24.625c-2.544-24.378-0.082-53.723,10.835-72.889c-3.365-7.88,2.339-13.667,4.925-18.715
		c8.291,0.657,10.096-9.111,17.73-11.82c10.424-3.694,21.669,0.411,31.52,2.955c20.931,5.458,24.502,19.207,33.489,36.444
		c4.063-8.741,4.843-20.766,7.88-30.534c-25.65-13.831-15.637-42.724,12.805-42.354c3.693,0.041,7.962,2.421,11.82,1.97
		c5.088-0.616,9.152-6.197,13.789-6.895c-1.847-4.72-6.813-6.32-6.895-12.805c-6.156,0.411-6.854,6.279-10.835,8.865
		c-4.392,2.339-13.544,2.914-17.729,0c-1.478-8.25-2.504-13.913-4.926-22.655c-4.104,0.534-6.484,11.245-15.76,9.85
		c0.534-4.391,3.694-6.156,4.926-9.85c0.697-6.074-3.283-13.01,0.984-16.745c1.602,3.981,3.037,8.126,6.896,9.85
		c-6.526-4.35,1.601-17.319-4.925-21.669c-2.012,0.944-2.135,3.776-1.971,6.895c-2.421-8.414-7.059-14.611-7.879-24.625
		c-5.951-5.007-18.305-7.798-21.67-18.714c-2.298-7.429,0.41-16.868-0.985-25.61c-1.724-10.752-14.364-29.878-3.94-43.339
		c6.074,4.515,3.776,12.887,6.895,19.7c5.048,10.958,15.555,22.573,25.609,28.565c4.966,2.996,10.425,7.346,19.7,4.925
		c5.417-1.396,8.167-9.809,13.789-13.79c12.559-8.865,33.038-10.752,44.324,4.925c9.892-13.461,29.14-22.696,48.265-23.64
		c-2.381,3.529-7.88,3.94-10.835,6.895c-4.146,17.525-5.212,38.127-13.79,51.219c3.448,20.521-1.724,40.056-9.85,52.204
		c-10.548,2.257-14.528,11.081-26.595,11.82c1.272,3.653,5.213,8.783,2.955,12.805c8.947-0.082,13.544,4.187,19.7,6.895
		c15.308-17.853,55.076,3.078,40.384,23.64c9.111,15.185,20.274,28.318,31.52,41.369
		C504.729,288.027,510.597,288.971,513.183,289.914z M509.242,388.413c0.206-1.847-1.107-2.175-0.984-3.94
		c-3.037-2.298-8.947-0.943-8.865,2.955C501.609,389.727,506.698,391.942,509.242,388.413z M511.213,302.72
		c-6.525-6.896-13.954,7.428-7.88,12.805C506.78,312.077,509.899,308.301,511.213,302.72z M487.573,310.6
		c0.902-3.037,3.775-4.433,3.939-7.88c-9.193-4.925-15.719-12.518-24.624-17.73c1.601,9.235,2.462,22.039,1.97,32.504
		c-0.328,6.73-2.791,13.79-1.97,19.7c1.066,7.921,8.454,12.229,7.88,19.699c6.197-4.679,6.197-13.954,8.864-21.67
		c0.862-2.421,2.627-3.898,2.955-5.909C487.614,323.527,485.809,316.509,487.573,310.6z M463.934,395.308
		c5.581,0,12.723-3.693,9.85-8.864C473.168,392.065,466.725,391.86,463.934,395.308z M464.918,518.431
		c3.653,0.698,4.351-1.56,3.94-4.925c-0.985,0-1.97,0-2.955,0C466.231,515.805,465.739,517.281,464.918,518.431z M467.873,366.743
		c-1.683-0.041-2.503,0.739-2.955,1.97C466.602,368.754,467.463,367.934,467.873,366.743z M465.903,238.695
		c0.944-5.541-1.396-7.797-4.925-8.865c-1.847,1.888-0.123,2.462,0,4.925c-4.31-0.042-9.234-0.698-9.85,2.955
		C453.427,240.83,462.169,239.968,465.903,238.695z M465.903,356.894c-8.536-0.656-12.107,3.652-16.745,6.895
		c-4.391-1.148-7.838,3.653-2.954,0.985c1.97,0,3.939,0,5.909,0C454.535,359.972,462.907,361.121,465.903,356.894z M462.948,351.969
		c-6.771-1.149-13.174,3.201-12.805,5.91C452.894,354.39,459.255,354.513,462.948,351.969z M458.023,336.209
		c4.474-11.122,4.433-30.493,2.955-46.295c-1.683-18.017-10.343-35.048-16.745-45.309c-7.428-2.75-12.188-13.42-22.654-9.85
		c27.99,10.506,20.397,49.085,17.729,82.738c7.716,7.552,3.653,33.448-0.984,37.43C444.645,348.069,454.043,346.059,458.023,336.209
		z M449.158,494.791c1.93,7.265,7.388,10.999,13.79,13.79C460.404,501.933,455.191,497.951,449.158,494.791z M447.188,410.083
		c-5.992,1.066-6.73-3.119-11.819-2.955c0.369,18.099-9.316,26.143-9.85,43.339c3.898-1.97,3.324-6.361,4.925-9.85
		C435.205,430.192,441.73,419.933,447.188,410.083z M433.399,119.513c6.854-4.638,8.618-19.618,10.834-25.61
		c-7.551,5.582-12.147,14.118-18.714,20.685C428.803,115.573,428.597,120.046,433.399,119.513z M439.309,483.956
		c6.937-6.977-5.089-19.576-10.835-13.789C436.066,470.782,434.466,480.591,439.309,483.956z M432.414,131.333
		c0.287-3.94-3.899-7.141-7.88-12.805c-5.5-7.797-12.518-18.099-24.624-13.79c-0.78,0.205-1.15,0.821-0.986,1.97
		c10.466,2.421,12.683,14.118,9.851,24.625c-4.843,0.739-4.925,6.238-7.88,8.865C413.002,147.42,431.634,141.511,432.414,131.333z
		 M426.504,376.593c-3.406,0.411-6.813-4.268-8.864-1.97C420.102,375.198,423.795,379.548,426.504,376.593z M388.09,374.623
		c2.668,0.739,9.891,3.611,10.834,0C397.447,373.269,388.869,370.272,388.09,374.623z M384.15,457.362
		c2.01-13.954,25.773-40.016,10.834-55.159c-5.623,6.771-2.257,15.39-3.939,23.64c-2.094,10.26-12.23,21.792-10.835,32.504
		c-0.985-0.861-8.536-2.75-7.88,0.985C377.46,459.865,381.236,459.045,384.15,457.362z M387.104,254.455
		c0.165-1.149,1.642-6.115-1.97-6.895c0.697,15.144-13.543,15.349-23.64,19.7C371.181,269.723,385.791,263.607,387.104,254.455z
		 M379.225,274.155c2.012-3.652,6.977-4.35,6.895-8.865c-4.965,2.257-8.946,5.5-14.773,6.895
		c-2.955,16.909-20.521,35.87-8.865,52.204C372.207,311.215,371.797,287.657,379.225,274.155z M356.57,155.957
		c15.063,0.246,21.013-22.737,12.805-33.49c-13.092-0.369-25.363-1.067-32.504-5.91c-2.176-1.478-2.955-4.802-4.926-6.895
		c-2.216-2.38-5.171-3.899-6.895-5.91c-3.406-3.94-7.387-13.133-10.835-11.82c3.981,5.13,4.515,11.615,7.88,16.745
		c3.898,5.951,10.917,9.152,13.79,15.76c12.476,4.597,22.08,12.107,23.64,27.58C359.115,153.905,355.709,152.797,356.57,155.957z
		 M347.705,354.924c-0.041-8.578,2.053-16.909,0.985-24.625c-1.806-13.215-10.507-21.341-13.79-32.504
		c-11.696-8.332-20.479-24.83-38.414-23.64c16.252,9.029,27.128,23.434,31.52,44.325c3.57,0.902,6.156-4.269,8.865-0.985
		c-2.791,6.73-7.512,11.532-7.881,20.685c3.529,1.396,7.511,2.34,10.836,3.94c0,10.178-7.307,13.051-14.775,15.76
		c-2.626,15.76-5.746,31.026-12.805,42.354c-1.149-6.854-9.727-11.081-17.73-7.88c-3.365,4.104,5.5,2.504,4.925,6.896
		c0.697,5.048-5.951,6.607-3.94,9.85c14.61,7.839,19.125-9.357,28.564-10.835c1.6,10.835-5.664,22.162-16.745,23.64
		c-11.287,1.478-18.592-6.115-22.655-7.88c5.746,8.496,14.446,10.917,23.64,9.85c19.002-2.257,30.822-21.587,36.444-38.414
		C348.649,373.803,347.746,367.482,347.705,354.924z M298.456,366.743c5.705-6.73,1.888-28.975-4.925-33.489
		c-1.888-1.231-7.346-3.529-8.865,0.985c6.238,1.478,8.537,15.349,5.91,25.609c-0.944,2.011-3.16,2.75-4.925,3.939
		C289.017,366.374,293.244,368.631,298.456,366.743z M295.501,301.734c2.585-9.439-7.224-19.494-18.715-14.774
		c1.149,0.164,2.791-0.165,2.955,0.985c-4.269,0.657-8.085,1.764-8.865,5.91c3.53-1.272,10.589-0.985,12.805,1.97
		c-0.288,2.34-3.407,1.848-2.955,4.925C283.025,303.868,291.767,303.007,295.501,301.734z M259.057,371.668
		c1.806,5.541,15.268,5.664,14.775-1.97c-4.391-4.515-5.417-12.313-12.805-13.79C264.064,361.449,263.12,368.262,259.057,371.668z"
		/>
	<path fill="#FFFFFF" d="M508.258,384.473c-0.123,1.766,1.19,2.094,0.984,3.94c-2.544,3.529-7.633,1.313-9.85-0.985
		C499.311,383.529,505.221,382.175,508.258,384.473z"/>
	<path fill="#FFFFFF" d="M503.333,315.524c-6.074-5.377,1.354-19.7,7.88-12.805C509.899,308.301,506.78,312.077,503.333,315.524z"/>
	<path fill="#FFFFFF" d="M491.513,302.72c-0.164,3.447-3.037,4.843-3.939,7.88c-1.765,5.909,0.041,12.928-0.985,18.715
		c-0.328,2.011-2.093,3.488-2.955,5.909c-2.667,7.716-2.667,16.991-8.864,21.67c0.574-7.47-6.813-11.778-7.88-19.699
		c-0.821-5.91,1.642-12.97,1.97-19.7c0.492-10.466-0.369-23.27-1.97-32.504C475.794,290.202,482.319,297.795,491.513,302.72z"/>
	<path fill="#FFFFFF" d="M473.783,386.443c2.873,5.171-4.269,8.864-9.85,8.864C466.725,391.86,473.168,392.065,473.783,386.443z"/>
	<path fill="#FFFFFF" d="M468.858,513.506c0.41,3.365-0.287,5.623-3.94,4.925c0.821-1.149,1.313-2.626,0.985-4.925
		C466.889,513.506,467.873,513.506,468.858,513.506z"/>
	<path fill="#FFFFFF" d="M464.918,368.713c0.452-1.23,1.272-2.011,2.955-1.97C467.463,367.934,466.602,368.754,464.918,368.713z"/>
	<path fill="#FFFFFF" d="M460.979,229.831c3.529,1.067,5.869,3.324,4.925,8.865c-3.734,1.272-12.477,2.134-14.774-0.985
		c0.615-3.652,5.54-2.996,9.85-2.955C460.855,232.293,459.132,231.719,460.979,229.831z"/>
	<path fill="#FFFFFF" d="M449.158,363.788c4.638-3.242,8.209-7.551,16.745-6.895c-2.996,4.228-11.368,3.078-13.79,7.88
		c-1.97,0-3.939,0-5.909,0C441.32,367.441,444.768,362.64,449.158,363.788z"/>
	<path fill="#FFFFFF" d="M450.144,357.879c-0.369-2.709,6.033-7.06,12.805-5.91C459.255,354.513,452.894,354.39,450.144,357.879z"/>
	<path fill="#FFFFFF" d="M460.979,289.914c1.478,15.802,1.519,35.173-2.955,46.295c-3.98,9.85-13.379,11.86-19.699,18.715
		c4.638-3.981,8.7-29.878,0.984-37.43c2.668-33.653,10.261-72.232-17.729-82.738c10.466-3.571,15.227,7.1,22.654,9.85
		C450.636,254.866,459.296,271.897,460.979,289.914z"/>
	<path fill="#FFFFFF" d="M462.948,508.581c-6.402-2.791-11.86-6.525-13.79-13.79C455.191,497.951,460.404,501.933,462.948,508.581z"
		/>
	<path fill="#FFFFFF" d="M435.369,407.128c5.089-0.164,5.827,4.021,11.819,2.955c-5.458,9.85-11.983,20.109-16.744,30.534
		c-1.601,3.488-1.026,7.88-4.925,9.85C426.053,433.271,435.738,425.227,435.369,407.128z"/>
	<path fill="#FFFFFF" d="M444.233,93.903c-2.216,5.992-3.98,20.972-10.834,25.61c-4.803,0.533-4.597-3.94-7.88-4.925
		C432.086,108.021,436.683,99.484,444.233,93.903z"/>
	<path fill="#FFFFFF" d="M428.474,470.167c5.746-5.787,17.771,6.813,10.835,13.789C434.466,480.591,436.066,470.782,428.474,470.167
		z"/>
	<path fill="#FFFFFF" d="M424.534,118.527c3.98,5.664,8.167,8.865,7.88,12.805c-0.78,10.178-19.412,16.088-31.52,8.865
		c2.955-2.626,3.037-8.126,7.88-8.865c2.832-10.507,0.615-22.203-9.851-24.625c-0.164-1.149,0.206-1.765,0.986-1.97
		C412.017,100.429,419.034,110.73,424.534,118.527z"/>
	<path fill="#FFFFFF" d="M417.64,374.623c2.052-2.298,5.458,2.381,8.864,1.97C423.795,379.548,420.102,375.198,417.64,374.623z"/>
	<path fill="#FFFFFF" d="M398.924,374.623c-0.943,3.611-8.166,0.739-10.834,0C388.869,370.272,397.447,373.269,398.924,374.623z"/>
	<path fill="#FFFFFF" d="M394.984,402.203c14.939,15.144-8.824,41.205-10.834,55.159c-2.914,1.683-6.69,2.503-11.82,1.97
		c-0.656-3.735,6.895-1.847,7.88-0.985c-1.396-10.712,8.741-22.244,10.835-32.504C392.728,417.593,389.361,408.975,394.984,402.203z
		"/>
	<path fill="#FFFFFF" d="M385.135,247.561c3.611,0.78,2.135,5.746,1.97,6.895c-1.313,9.152-15.924,15.268-25.609,12.805
		C371.592,262.91,385.832,262.705,385.135,247.561z"/>
	<path fill="#FFFFFF" d="M386.119,265.29c0.082,4.515-4.883,5.212-6.895,8.865c-7.428,13.502-7.018,37.06-16.744,50.234
		c-11.656-16.334,5.91-35.295,8.865-52.204C377.173,270.79,381.154,267.547,386.119,265.29z"/>
	<path fill="#FFFFFF" d="M369.375,122.467c8.208,10.753,2.258,33.736-12.805,33.49c-0.861-3.16,2.545-2.052,2.955-3.94
		c-1.56-15.473-11.164-22.983-23.64-27.58c-2.873-6.607-9.892-9.809-13.79-15.76c-3.365-5.13-3.899-11.615-7.88-16.745
		c3.448-1.313,7.429,7.88,10.835,11.82c1.724,2.011,4.679,3.529,6.895,5.91c1.971,2.093,2.75,5.417,4.926,6.895
		C344.012,121.4,356.283,122.098,369.375,122.467z"/>
	<path fill="#FFFFFF" d="M348.69,330.299c1.067,7.716-1.026,16.047-0.985,24.625c0.041,12.559,0.944,18.879-2.955,30.534
		c-5.622,16.827-17.441,36.157-36.444,38.414c-9.193,1.067-17.894-1.354-23.64-9.85c4.063,1.765,11.368,9.357,22.655,7.88
		c11.081-1.478,18.345-12.805,16.745-23.64c-9.439,1.478-13.954,18.674-28.564,10.835c-2.011-3.242,4.637-4.802,3.94-9.85
		c0.574-4.392-8.291-2.791-4.925-6.896c8.003-3.201,16.581,1.026,17.73,7.88c7.059-11.327,10.178-26.594,12.805-42.354
		c7.469-2.709,14.775-5.582,14.775-15.76c-3.325-1.601-7.307-2.545-10.836-3.94c0.369-9.152,5.09-13.954,7.881-20.685
		c-2.709-3.283-5.295,1.888-8.865,0.985c-4.392-20.891-15.268-35.295-31.52-44.325c17.935-1.19,26.718,15.309,38.414,23.64
		C338.184,308.958,346.885,317.084,348.69,330.299z"/>
	<path fill="#FFFFFF" d="M293.531,333.254c6.813,4.515,10.63,26.759,4.925,33.489c-5.212,1.888-9.439-0.369-12.805-2.955
		c1.765-1.189,3.981-1.929,4.925-3.939c2.627-10.261,0.329-24.132-5.91-25.609C286.185,329.725,291.644,332.022,293.531,333.254z"/>
	<path fill="#FFFFFF" d="M276.787,286.96c11.491-4.72,21.3,5.335,18.715,14.774c-3.735,1.272-12.477,2.134-14.775-0.985
		c-0.452-3.077,2.667-2.585,2.955-4.925c-2.216-2.955-9.275-3.242-12.805-1.97c0.78-4.146,4.597-5.253,8.865-5.91
		C279.577,286.795,277.936,287.124,276.787,286.96z"/>
	<path fill="#FFFFFF" d="M273.832,369.698c0.493,7.634-12.969,7.511-14.775,1.97c4.063-3.406,5.007-10.219,1.97-15.76
		C268.414,357.386,269.44,365.184,273.832,369.698z"/>
</g>
</svg>
