<?xml version="1.0" encoding="utf-8"?>
<!-- Generator: Adobe Illustrator 14.0.0, SVG Export Plug-In . SVG Version: 6.00 Build 43363)  -->
<!DOCTYPE svg PUBLIC "-//W3C//DTD SVG 1.1//EN" "http://www.w3.org/Graphics/SVG/1.1/DTD/svg11.dtd">
<svg version="1.1" id="Layer_1" xmlns="http://www.w3.org/2000/svg" xmlns:xlink="http://www.w3.org/1999/xlink" x="0px" y="0px"
	 width="800px" height="600px" viewBox="0 0 800 600" enable-background="new 0 0 800 600" xml:space="preserve">
<g id="XMLID_2_">
	<g>
		<path fill="#FFFFFF" d="M573.11,81c0,161.17,0,322.33,0,483.5c-105.69,0-211.39,0-317.081,0c0-160.79,0-321.58,0-482.38
			c-0.03-0.53-0.06-1.06,0.37-1.12C361.97,81,467.54,81,573.11,81z M555.12,224.55c0.6-1.78,2.06-2.69,1.88-5.25
			c-2.04-2.45-6.05-2.94-9.75-3.74c0.49,5.86-5.43,7.31-7.49,9.37c0.62-3.04,4.75-3.47,5.99-6.38c1.08-2.52-0.62-6.06,1.13-8.99
			c0.54,0.7,0.01,2.48,0.75,3c0.44-1.92,1.3-4.62,0.37-6.75c-3.94-3.04-6.98,1.15-9.37,3c-0.92-2.2-1.74-4.51-3.75-5.62
			c-2.71,0.18-6.97-0.34-8.99,1.5c-1.26,3.74-1.149,8.84-1.88,13.11c-1.09,1.66-2.84,2.66-3.37,4.88c-0.08,0.29-0.31,0.43-0.75,0.37
			c-1.89,0.99-4.1,1.42-6.37,1.5c-6.319,0.22-16.699-0.88-22.109-2.62c-3.851-1.24-5.48-6.56-9-7.12c-3.24,0.31-5.98-0.43-8.62,0
			c-1.47,0.23-2.72,1.31-4.12,1.5c-3.95,0.53-7.92-0.52-13.12,0c-1.45-2.2-4.34-2.04-6.75-3c-2.28-0.92-4.7-2.74-6.74-4.13
			c-2.159-1.46-4.359-3.04-6.38-4.49c0.641-5.77-1.01-9.24-3.37-12c-6.649,0.06-9.949-7.09-16.859-8.24
			c-3.15-0.53-6.87,0.63-10.12-1.13c-4.76,3.86-15.9,1.35-22.49,3.38c-1.5-2.38-2.48-5.27-2.63-9c4.49-0.29,5.91-5.55,4.5-10.49
			c2.17-1.38,2.95-4.45,2.25-6.75c2.33-1.55,3.06-4.68,4.5-7.12c-3.09-5.89,3.31-10.57,2.62-15.37c-0.28-1.97-1.47-2.4-2.62-4.12
			c0.07-5.51-0.46-8.4-1.88-12.75c-3.03-9.31-9.43-14.56-17.61-18.74c-4.62-2.35-11.78-3.56-18.74-2.99
			c-12.35,0.99-22.96,5.04-25.11,15.74c-4.15,2.77-11.3,6.95-11.62,13.12c-0.11,2.13,0.85,5.2,1.87,5.99
			c0.75-1.13,0.64-3.11,2.25-3.37c0.52,4.72,1.32,9.17,1.5,14.24c1.85-0.03,0.95-2.24,1.12-3.37c0.63-4.05,1.05-9.14,1.88-12.74
			c0.2,2.33,1.1,4.9,1.12,7.49c0.04,3.63-2.24,6.32-1.12,7.87c1.71-1.29,2.45-3.54,3.74-5.25c3.67,6.44,1.47,17.3-1.12,21.74
			c3.16-1.83,3.8-6.19,5.62-9.37c1.06,2.19-1.18,6.12,1.13,7.5c3.87-0.49,2.13-6.61,3.74-9.37c6.06,2.99,8.7,8.56,7.5,17.24
			c-0.67,4.86-4.74,9.63-4.12,13.49c-4.05,4.77-12.27,8.22-15.37,15.37c-0.72,1.66-0.75,4.18-1.5,6.37
			c-0.62,1.84-2.14,3.65-2.62,5.25c-2.36,7.85-0.27,15.43,4.12,20.99c-2.01,3.98,0.15,9.01,0.38,13.12
			c3.09,9.15,8.43,16.05,15.74,20.99c2.64,5.61,8.41,12.25,9.37,20.24c0.74,6.22-1.65,11.93-2.63,16.86
			c-4.08,1.29-6.91,3.83-8.62,7.5c-0.48,3.141,0.49,6.15,0.38,9.37c-0.24,6.93-4.08,10.41-6,15.37c-1.7,4.39-2.41,9.52-3.37,14.61
			c-0.77,4.08-1.39,9.6-1.13,13.87c0.19,3.06,0.9,7.909,1.5,10.869c0.33,1.61,1.34,2.82,1.5,4.5c0.42,4.21-3.24,10.58,0.75,10.87
			c2.44,0.17,3.6-4.239,5.25-6c1.26-1.34,3.02-1.68,4.12-2.62c1.49-0.14,3.59,0.341,4.5-0.38c1.33-0.42,0.94-2.56,1.87-3.37
			c0.81,0.94,2.32,1.181,3,2.25c1.85,8.65,5.9,15.091,8.25,23.23c-0.62,2.58-2.25,3.76-3.38,5.25c-4.93,6.56-6.84,14.59-10.86,21.74
			c-6.49,6.01-12.78,12.21-20.24,17.239c-4.87-4.489-11.76-2.619-14.25,1.131c-1.34,2.02-3.4,8.31-2.62,13.489
			c0.66,4.351,4,8.61,4.87,11.99c0.91,3.55,0.7,8.4,0.38,12c-0.22,2.41-1.37,4.86-1.13,6.74c0.21,1.609,1.89,3.02,2.25,4.5
			c3.51,2.1,9.79,2.25,16.12,2.25c6.2,0,10.28,0.59,11.99-2.25c0.71-4.7-2.7-5.29-5.25-6.74c-0.32-2.18-1.9-3.1-1.87-5.63
			c-5.32-2.99-1.36-8.28-0.37-12.74c0.88-4.02,0.3-8.87,1.87-11.99c0.65-1.31,2.53-1.979,4.12-3.38
			c4.58-4.01,10.48-9.85,14.99-10.87c-0.73,7.91-2.13,18.25-1.12,27.74c0.64,6.03,2.92,15.62,1.87,22.11
			c-0.2,1.26-1.19,2.13-1.49,3.38c-0.69,2.81-0.51,5.85-1.13,8.99c-1.46,7.45-7.45,15.67-8.25,22.109
			c-0.79,6.49,0.33,10.021,1.88,14.62c0.5,0.38,1.39,0.36,1.5,1.13c5.95-0.229,10.08,0.721,13.87,1.87c1.79,0.54,3.73,0.94,5.24,1.5
			c3.17,1.181,5.07,3.971,7.87,5.25c3.83,1.74,11.06,2.48,16.12,1.87c4.51-0.54,5.979-2.899,9-4.12c2.35-0.96,4.5-0.649,7.49-1.5
			c0.5-4.2-3.04-4.92-4.87-6.75c-1.28-1.279-1.4-2.819-3-3.75c-5.32,0.931-8.46-1.08-10.87-2.62c-2.42-1.55-7.19-3.569-8.24-4.87
			c-1.73-2.119-2.02-6.1-3.38-8.619c-0.67-1.25-1.91-2.03-2.62-3.381c-0.72-1.359-0.95-2.939-1.5-4.869
			c-0.93-3.23-2.64-7.45-2.25-10.49c0.28-2.17,3.13-5.59,4.5-8.62c5.29-11.76,8.99-25.85,13.12-37.86
			c2.68-7.81,4.66-16.62,7.87-23.609c4.35-2.801,0.93-8.07,0-12.74c-0.43-2.16-0.97-5.09-0.75-7.13c0.22-2.03,1.62-3.87,1.87-5.99
			c1.149-9.79-1.16-18.47-2.25-25.49c-0.56-3.67-0.94-8.09-1.5-11.989c-0.24-1.761-1.16-3.351-1.12-4.881
			c0.1-3.909,3.41-7.869,1.5-12.359c1.88-2.16,1.51-5.15,2.25-8.25c0.54-2.271,1.96-4.41,2.25-6.75c0.43-3.53-0.2-7.53-0.38-11.62
			c-0.311-7.03,0.84-14.54,0.38-20.61c-0.43-5.6-2.82-11.84-0.75-17.62c1.75,0,3.5,0,5.25,0c5.13-3.76,3.93-15.67,3.37-21.36
			c6.67,2.24,9.88-4.09,13.12-4.5c1.68-0.21,3.199,0.98,4.489,1.13c4.601,0.52,7.11-0.73,9.75-1.13c5.48-0.83,12.32-0.83,16.12,1.13
			c1.71,0.88,2.61,2.88,4.12,4.12c1.13,0.93,2.9,1.54,4.5,2.62c2.76,1.89,4.21,3.84,8.62,3.75c-0.03,2.93,3.21,2.58,5.24,3.37
			c0.27,0.11,0.49,0.97,0.75,1.13c2.3,1.36,5.66,0.17,7.5-0.75c3.49,2.66,11.7,0.31,11.24-3.37c-0.271-2.19-2.73-2.22-5.24-3
			c2.68-1.32,5.02-2.98,4.87-7.12c-0.971-1.87-3.771-2.75-6.37-1.88c-0.87-0.63-1.59-1.41-2.63-1.87c-3.12,0.5-2.78-0.1-4.87-1.13
			c-2.32-1.14-2.391-1.05-3.75-2.25c-1.811-1.59-7.49-2.2-11.24-2.62c-4.78-0.54-9.3,0.03-14.24-0.75
			c-3.609-0.56-7.31-3.12-10.87-4.5c-4.239-1.63-7.989-2.67-12-3.37c-3.329-5.91-9.029-9.45-17.609-10.12
			c-0.36-3.65-1.33-6.64,0.75-8.99c-0.99-2.02-1.351-4.66-1.88-7.13c1.77,1.86,6.689,2.37,10.12,4.13c0.6,0.3,0.92,1.28,1.5,1.5
			c0.899,0.33,2.569,0.03,3.75,0.37c1.96,0.56,2.81,1.66,4.119,1.5c3.12-0.38,5.25-5.08,6.37-7.5c9.12,5.25,16.87,11.87,29.24,13.87
			c3.12,6.15,6.58,11.23,14.99,9.75c1.07-0.19,2.38-1.33,3.75-1.5c1.62-0.21,3.22,0.29,4.87,0.37c7.899,0.39,16.85-0.19,23.989,0
			c1.4,0.48,1.41,2.34,2.25,3.38c1.421,0.82,3.091,1.4,4.12,2.62c0.58,1.17,0.801,2.7,1.5,3.75c4.65,1.84,8.54-1.73,13.12-2.25
			c0.41-3.33,5.86-4.37,4.12-7.5c2.771,1.2,5.61-2.58,8.25-1.5c-0.46,2.97-4.32,4.37-4.13,6.75c0.73,1.63,3.41,1.64,5.25,1.12
			c0.9-0.67,0.68-1.61,1.5-2.62c0.91-1.12,2.74-1.8,3.75-3c0.9-1.06,2.01-3.08,3-4.5c3.44-4.92,3.28-7.73-2.25-9.74
			c-1,5.5-5.23,9.76-10.5,9.74c6.97-1.4,8.46-8.28,11.62-13.49C555.48,223.75,554,224.3,555.12,224.55z"/>
		<path d="M386.47,454.64c0.01-0.08,0.02-0.159,0.03-0.22C386.49,454.47,386.48,454.54,386.47,454.64z M386.41,455.02
			c-0.01,0.04-0.01,0.08-0.02,0.12C386.4,455.1,386.41,455.06,386.41,455.02z M386.42,454.97c0.01-0.069,0.02-0.14,0.03-0.21
			C386.44,454.84,386.43,454.91,386.42,454.97z M342.47,450.79c0.05-0.03,0.09-0.05,0.13-0.07
			C342.56,450.74,342.52,450.77,342.47,450.79z M557,219.3c0.18,2.56-1.28,3.47-1.88,5.25c-1.12-0.25,0.36-0.8,0-1.5
			c-3.16,5.21-4.65,12.09-11.62,13.49c5.27,0.02,9.5-4.24,10.5-9.74c5.53,2.01,5.69,4.82,2.25,9.74c-0.99,1.42-2.1,3.44-3,4.5
			c-1.01,1.2-2.84,1.88-3.75,3c-0.82,1.01-0.6,1.95-1.5,2.62c-1.84,0.52-4.52,0.51-5.25-1.12c-0.19-2.38,3.67-3.78,4.13-6.75
			c-2.64-1.08-5.479,2.7-8.25,1.5c1.74,3.13-3.71,4.17-4.12,7.5c-4.58,0.52-8.47,4.09-13.12,2.25c-0.699-1.05-0.92-2.58-1.5-3.75
			c-1.029-1.22-2.699-1.8-4.12-2.62c-0.84-1.04-0.85-2.9-2.25-3.38c-7.14-0.19-16.09,0.39-23.989,0c-1.65-0.08-3.25-0.58-4.87-0.37
			c-1.37,0.17-2.68,1.31-3.75,1.5c-8.41,1.48-11.87-3.6-14.99-9.75c-12.37-2-20.12-8.62-29.24-13.87c-1.12,2.42-3.25,7.12-6.37,7.5
			c-1.31,0.16-2.159-0.94-4.119-1.5c-1.181-0.34-2.851-0.04-3.75-0.37c-0.58-0.22-0.9-1.2-1.5-1.5
			c-3.431-1.76-8.351-2.27-10.12-4.13c0.529,2.47,0.89,5.11,1.88,7.13c-2.08,2.35-1.11,5.34-0.75,8.99
			c8.58,0.67,14.28,4.21,17.609,10.12c4.011,0.7,7.761,1.74,12,3.37c3.561,1.38,7.261,3.94,10.87,4.5
			c4.94,0.78,9.46,0.21,14.24,0.75c3.75,0.42,9.43,1.03,11.24,2.62c1.359,1.2,1.43,1.11,3.75,2.25c2.09,1.03,1.75,1.63,4.87,1.13
			c1.04,0.46,1.76,1.24,2.63,1.87c2.6-0.87,5.399,0.01,6.37,1.88c0.149,4.14-2.19,5.8-4.87,7.12c2.51,0.78,4.97,0.81,5.24,3
			c0.46,3.68-7.75,6.03-11.24,3.37c-1.84,0.92-5.2,2.11-7.5,0.75c-0.26-0.16-0.48-1.02-0.75-1.13c-2.03-0.79-5.271-0.44-5.24-3.37
			c-4.41,0.09-5.86-1.86-8.62-3.75c-1.6-1.08-3.37-1.69-4.5-2.62c-1.51-1.24-2.41-3.24-4.12-4.12c-3.8-1.96-10.64-1.96-16.12-1.13
			c-2.64,0.4-5.149,1.65-9.75,1.13c-1.29-0.15-2.81-1.34-4.489-1.13c-3.24,0.41-6.45,6.74-13.12,4.5c0.56,5.69,1.76,17.6-3.37,21.36
			c-1.75,0-3.5,0-5.25,0c-2.07,5.78,0.32,12.02,0.75,17.62c0.46,6.07-0.69,13.58-0.38,20.61c0.18,4.09,0.81,8.09,0.38,11.62
			c-0.29,2.34-1.71,4.479-2.25,6.75c-0.74,3.1-0.37,6.09-2.25,8.25c1.91,4.49-1.4,8.45-1.5,12.359c-0.04,1.53,0.88,3.12,1.12,4.881
			c0.56,3.899,0.94,8.319,1.5,11.989c1.09,7.021,3.399,15.7,2.25,25.49c-0.25,2.12-1.65,3.96-1.87,5.99
			c-0.22,2.04,0.32,4.97,0.75,7.13c0.93,4.67,4.35,9.939,0,12.74c-3.21,6.989-5.19,15.8-7.87,23.609
			c-4.13,12.011-7.83,26.101-13.12,37.86c-1.37,3.03-4.22,6.45-4.5,8.62c-0.39,3.04,1.32,7.26,2.25,10.49
			c0.55,1.93,0.78,3.51,1.5,4.869c0.71,1.351,1.95,2.131,2.62,3.381c1.36,2.52,1.65,6.5,3.38,8.619c1.05,1.301,5.82,3.32,8.24,4.87
			c2.41,1.54,5.55,3.551,10.87,2.62c1.6,0.931,1.72,2.471,3,3.75c1.83,1.83,5.37,2.55,4.87,6.75c-2.99,0.851-5.141,0.54-7.49,1.5
			c-3.021,1.221-4.49,3.58-9,4.12c-5.06,0.61-12.29-0.13-16.12-1.87c-2.8-1.279-4.7-4.069-7.87-5.25c-1.51-0.56-3.45-0.96-5.24-1.5
			c-3.79-1.149-7.92-2.1-13.87-1.87c-0.11-0.77-1-0.75-1.5-1.13c-1.55-4.6-2.67-8.13-1.88-14.62c0.8-6.439,6.79-14.659,8.25-22.109
			c0.62-3.141,0.44-6.181,1.13-8.99c0.3-1.25,1.29-2.12,1.49-3.38c1.05-6.49-1.23-16.08-1.87-22.11
			c-1.01-9.49,0.39-19.83,1.12-27.74c-4.51,1.021-10.41,6.86-14.99,10.87c-1.59,1.4-3.47,2.07-4.12,3.38
			c-1.57,3.12-0.99,7.971-1.87,11.99c-0.99,4.46-4.95,9.75,0.37,12.74c-0.03,2.53,1.55,3.45,1.87,5.63
			c2.55,1.45,5.96,2.04,5.25,6.74c-1.71,2.84-5.79,2.25-11.99,2.25c-6.33,0-12.61-0.15-16.12-2.25c-0.36-1.48-2.04-2.891-2.25-4.5
			c-0.24-1.88,0.91-4.33,1.13-6.74c0.32-3.6,0.53-8.45-0.38-12c-0.87-3.38-4.21-7.64-4.87-11.99c-0.78-5.18,1.28-11.47,2.62-13.489
			c2.49-3.75,9.38-5.62,14.25-1.131c7.46-5.029,13.75-11.229,20.24-17.239c4.02-7.15,5.93-15.181,10.86-21.74
			c1.13-1.49,2.76-2.67,3.38-5.25c-2.35-8.14-6.4-14.58-8.25-23.23c-0.68-1.069-2.19-1.31-3-2.25c-0.93,0.811-0.54,2.95-1.87,3.37
			c-0.91,0.721-3.01,0.24-4.5,0.38c-1.1,0.94-2.86,1.28-4.12,2.62c-1.65,1.761-2.81,6.17-5.25,6c-3.99-0.29-0.33-6.66-0.75-10.87
			c-0.16-1.68-1.17-2.89-1.5-4.5c-0.6-2.96-1.31-7.81-1.5-10.869c-0.26-4.271,0.36-9.79,1.13-13.87
			c0.96-5.091,1.67-10.221,3.37-14.61c1.92-4.96,5.76-8.44,6-15.37c0.11-3.22-0.86-6.229-0.38-9.37c1.71-3.67,4.54-6.21,8.62-7.5
			c0.98-4.93,3.37-10.64,2.63-16.86c-0.96-7.99-6.73-14.63-9.37-20.24c-7.31-4.94-12.65-11.84-15.74-20.99
			c-0.23-4.11-2.39-9.14-0.38-13.12c-4.39-5.56-6.48-13.14-4.12-20.99c0.48-1.6,2-3.41,2.62-5.25c0.75-2.19,0.78-4.71,1.5-6.37
			c3.1-7.15,11.32-10.6,15.37-15.37c-0.62-3.86,3.45-8.63,4.12-13.49c1.2-8.68-1.44-14.25-7.5-17.24c-1.61,2.76,0.13,8.88-3.74,9.37
			c-2.31-1.38-0.07-5.31-1.13-7.5c-1.82,3.18-2.46,7.54-5.62,9.37c2.59-4.44,4.79-15.3,1.12-21.74c-1.29,1.71-2.03,3.96-3.74,5.25
			c-1.12-1.55,1.16-4.24,1.12-7.87c-0.02-2.59-0.92-5.16-1.12-7.49c-0.83,3.6-1.25,8.69-1.88,12.74c-0.17,1.13,0.73,3.34-1.12,3.37
			c-0.18-5.07-0.98-9.52-1.5-14.24c-1.61,0.26-1.5,2.24-2.25,3.37c-1.02-0.79-1.98-3.86-1.87-5.99c0.32-6.17,7.47-10.35,11.62-13.12
			c2.15-10.7,12.76-14.75,25.11-15.74c6.96-0.57,14.12,0.64,18.74,2.99c8.18,4.18,14.58,9.43,17.61,18.74
			c1.42,4.35,1.95,7.24,1.88,12.75c1.15,1.72,2.34,2.15,2.62,4.12c0.69,4.8-5.71,9.48-2.62,15.37c-1.44,2.44-2.17,5.57-4.5,7.12
			c0.7,2.3-0.08,5.37-2.25,6.75c1.41,4.94-0.01,10.2-4.5,10.49c0.15,3.73,1.13,6.62,2.63,9c6.59-2.03,17.73,0.48,22.49-3.38
			c3.25,1.76,6.97,0.6,10.12,1.13c6.91,1.15,10.21,8.3,16.859,8.24c2.36,2.76,4.011,6.23,3.37,12c2.021,1.45,4.221,3.03,6.38,4.49
			c2.04,1.39,4.46,3.21,6.74,4.13c2.41,0.96,5.3,0.8,6.75,3c5.2-0.52,9.17,0.53,13.12,0c1.4-0.19,2.65-1.27,4.12-1.5
			c2.64-0.43,5.38,0.31,8.62,0c3.52,0.56,5.149,5.88,9,7.12c5.41,1.74,15.79,2.84,22.109,2.62c2.271-0.08,4.48-0.51,6.37-1.5
			c0.44,0.06,0.67-0.08,0.75-0.37c0.53-2.22,2.28-3.22,3.37-4.88c0.73-4.27,0.62-9.37,1.88-13.11c2.021-1.84,6.28-1.32,8.99-1.5
			c2.01,1.11,2.83,3.42,3.75,5.62c2.39-1.85,5.43-6.04,9.37-3c0.93,2.13,0.07,4.83-0.37,6.75c-0.74-0.52-0.21-2.3-0.75-3
			c-1.75,2.93-0.05,6.47-1.13,8.99c-1.24,2.91-5.37,3.34-5.99,6.38c2.061-2.06,7.98-3.51,7.49-9.37
			C550.95,216.36,554.96,216.85,557,219.3z M534.88,225.3c2.101-2.73,4.95-4.58,4.88-8.25c-0.08-3.77-4.06-7.48-4.88-10.86
			c0.79,4.08,3.13,6.62,3.75,10.86C537.32,219.49,535.69,223.6,534.88,225.3z M530.76,240.29c2.32-0.22,4.8-0.85,6.37-0.75
			c-1.38-1.28,0.73-2.25,0.75-3.37c-0.729-0.51-0.24-2.26-1.5-2.25c-1.34,2.16-3.5,3.49-7.12,3.37
			C529.34,238.71,530.44,239.11,530.76,240.29z M534.88,241.79c-1.439-0.41-2.35,1.61-1.5,2.25
			C533.77,243.18,534.16,242.32,534.88,241.79z M523.64,220.43c-1.109,0.69-1.87,1.63-3,2.62c-3.26,2.85-7.689,4.15-6.75,10.5
			c0.94,0.43,1.261,1.49,2.63,1.5C514.64,227.33,521.55,225.4,523.64,220.43z M491.78,265.78c0.56-2.98-3.061-3.89-3.75-1.5
			C490.41,263.65,489.4,266.41,491.78,265.78z M490.66,267.28C491.09,268.76,491.09,265.8,490.66,267.28L490.66,267.28z
			 M486.16,275.52c1.53,0.59,4.72,0.79,4.87-1.12C489.82,273.2,485.51,271.48,486.16,275.52z M484.29,270.28
			c1.4,0.03,3.03,0.28,2.62-1.5C485.5,268.75,483.88,268.49,484.29,270.28z M486.91,262.41c0-0.5,0-1,0-1.5
			c-1.23-0.76-4.03-0.44-4.87,0.37c-0.19,1.18,1.15,0.85,0.75,2.25C485.48,263.73,484.91,262.34,486.91,262.41z M482.79,266.9
			c-1.26-0.98-2.99,0.07-3.75,0.75c0.07,1.18-0.25,2.75,0.37,3.38c0.63,0,1.25,0,1.88,0C481.92,269.79,481.34,267.33,482.79,266.9z
			 M479.41,274.77c0.939,0.86,2.87,1.02,3.38-0.37C481.72,273.79,479.8,273.14,479.41,274.77z M464.79,256.41
			c4.41-2.23,9.19,2.84,13.5,1.87c-4.53-2.05-9.28-5.37-15.74-3.37C462.92,255.79,464.16,255.8,464.79,256.41z M477.54,265.78
			c-1.6-0.19-1.79-2.36-1.13-3.75c-3.101-0.02-7.59-3.86-10.49-3c-3.15,0.94,2.47,4.4,3.75,5.25c2.271,1.51,3.94,2.4,5.99,3
			C476.23,266.72,477.24,266.61,477.54,265.78z M463.67,263.53c3.85,3.18,6.66,6.72,11.99,6c-5.851-1.19-9.96-5.6-13.49-8.62
			c-4.04-3.46-7.93-6.06-13.12-8.25c-3.21-1.35-6.189-2.93-9.37-4.5c-3.22-1.58-7.199-3.36-10.489-3.74
			c-2.41-0.28-4.71,1.13-6.75-0.75c-0.28-1.28,1.38-0.62,1.5-1.5c-3.96-2.37-9.23-7.72-15.37-8.62c-5.11-0.76-10.1,0.34-14.61,1.87
			c12.46-1.22,17.69,4.79,26.23,7.5c-3.271,1.1-7.37,1.37-8.62,4.49c1,0.21,1.91-1.54,2.63-0.37c-0.33,4.97-0.33,10.46,3.37,12.37
			c0.56-0.69,1.56-0.94,1.87-1.88c-4.49-0.37-4.271-4.34-3.74-8.99c3.75-2.3,9.39-3.04,13.859-2.25c3.641,0.64,6.32,2.69,9.37,4.12
			c5.551,2.6,12.36,4.03,17.62,7.5C458.92,259.48,461.37,261.63,463.67,263.53z M464.04,224.55c0.83-0.93,1.29-3.77,0.75-4.87
			c-15.72-0.64-21.91-10.82-32.98-16.12c-0.819,0.55-1.51,1.24-1.869,2.25c3.54,2.29,6.649,4.97,9.739,7.12
			c3.061,2.13,6.13,3.96,9.37,5.62c1.62,0.83,3.351,2.02,4.88,2.63c1.49,0.6,3.311,0.41,4.87,1.12
			C460.5,223.08,461.73,225.46,464.04,224.55z M429.19,254.16c-1.4,0.24-2.7-1.77-3.37,0C427.22,253.66,428.41,255.28,429.19,254.16
			z M428.81,255.66c-1.069,0.05-2.92-1.04-3.739,0C425.85,256.37,428.17,256.91,428.81,255.66z M424.32,255.28
			c-1.38-0.59,1.51,0.09,0.75-1.12c-2.78-0.25-4.311-3.23-7.5-1.87C417.48,255.38,422.09,255.75,424.32,255.28z M411.95,250.41
			c-0.98,2.3-1.92,7.72,1.12,7.12C411.19,256.58,413.33,250.75,411.95,250.41z M406.33,272.15c2.93-1.4,2.85-5.35,1.49-8.62
			c-1.95-0.93-5.28-2.64-5.62,0.75c2.55,0.68,4.01,2.99,3.75,4.87c-0.62,4.39-9.08,3.12-10.87,6.37c2.85,1.35,5.26-0.98,7.87-1.12
			c1.16,2.15,2.5,4.14,1.88,6.37c-0.84,3.01-4.93,2.27-6.75,4.12C405.13,284.55,409.38,279.53,406.33,272.15z M404.45,226.8
			c4.83-3.11,1.42-15.12-0.37-19.12c-2.34-5.2-5.96-12.55-10.12-14.24c3.99,4.26,7.8,9.97,8.24,17.62
			c0.18,2.99-0.03,8.79-0.75,11.24c-0.66,2.27-3.42,3.97-3.75,6C400.14,227.67,402.63,227.97,404.45,226.8z M399.58,539.76
			c1.33,1.7,2.65,4.88,5.62,3.75c-0.09-4-5.77-8.63-8.62-4.12C397.49,540,398.4,540.34,399.58,539.76z M400.7,271.4
			c1.37-0.38,2.979-0.52,3.75-1.5c-1.51-3.11-4.33-4.75-6.75-1.5C398.77,269.34,400.27,269.84,400.7,271.4z M397.7,352.36
			c0.93-8.33,4.41-17.471,3.38-26.99c-0.4-3.68-2.02-7.39-2.63-10.87c-0.05,0.45,0.07,1.07-0.37,1.13c0,5.88,1.75,10.37,1.12,16.12
			C398.45,338.66,393.24,347.48,397.7,352.36z M399.58,310.38c0.29-1.01,1.02-4.11-0.38-4.5c0.85,6.84-9.07,2.93-11.62,6.38
			C391.67,313.17,396.27,311.47,399.58,310.38z M398.45,425.07c0.6-0.561,0.55-2.13-0.75-1.87
			C396.92,423.94,397.69,424.8,398.45,425.07z M397.33,548.76c0.11-3.229-2.29-3.96-5.25-4.12c0.41,1.33,2.04,1.46,3,2.24
			C395.52,547.81,395.48,549.24,397.33,548.76z M383.84,413.83c11.74-2.03,13.04-12.94,11.99-26.61
			c-0.69-8.96-2.71-16.279-4.5-23.239c-0.48-1.891-0.32-3.87-0.75-5.62c-0.62-2.57-2.24-4.96-2.62-7.5
			c-1.23-8.221-5.13-13.471-7.5-18.74c-1.76-0.49-2.41-4.07-4.12-3.37c4.24,4.27,8.36,11.39,9.75,19.11c0.16,0.899-0.13,2,0,3
			c0.94,7.489,4.2,16.97,4.87,26.239c0.48,6.79,0.5,15.301,0,21.36C390.34,405.89,386.31,408.74,383.84,413.83z M393.21,140.59
			c0.06-2.69-1.66-3.58-4.13-3.74c-0.74,0.26,0.1,2.09-0.75,2.24c-2.58-0.08-5.14-0.14-5.99,1.5c1.6,0.58,3.38-0.83,5.99-0.37
			C389.54,141.11,391.84,141.92,393.21,140.59z M392.46,306.63c0.74-0.34,0.74-1.25,0-0.37c-8.1,1.32-16.15,0.561-23.99-1.13
			c-5.66-1.21-10.81-4.21-15.37-4.12c-2.28,0.05-5.14,0.82-6.74,2.62c8.57-2.33,13.25,2.57,21.36,3.75c3.2,0.47,6.66,0.93,9.74,1.13
			C382.76,308.84,386.79,307.38,392.46,306.63z M391.71,548.76c0.54-1.109-0.66-3.2-2.63-3
			C389.6,547.12,389.75,548.84,391.71,548.76z M390.21,292.77c0.28-1.29-1.52-0.48-1.13-1.88c-0.84-4.41-3.47-7.02-5.99-9.74
			c-1.19,4.35,3.5,5.96,3.37,10.49C387.33,292.32,388.64,293.97,390.21,292.77z M392.83,538.64c-0.12-3.93-5.3-4.479-7.87-6.37
			c-5.28-3.89-9.75-13.18-14.62-16.869c0.31,2.619,1.48,5.8,2.63,7.869c2.18,3.971,6,8.961,8.99,11.25
			C384.94,536.79,389.17,537.72,392.83,538.64z M387.96,148.84c0.04-1.54,0.07-3.07-0.38-4.12c-3.59-1.52-6.44,0.93-5.99,3.37
			C382.08,150.78,386.13,151.16,387.96,148.84z M386.09,549.51c1.07,0.07,2.04,0.04,1.87-1.13c-0.49-0.479-1.38-0.479-1.87,0
			C386.09,548.76,386.09,549.13,386.09,549.51z M368.84,507.15c6.28-16.33,18.64-28.58,17.25-51.341
			c-1.3,11.221-3.51,20.28-7.5,28.11c-1.92,3.76-3.94,7.521-6,11.24C370.74,498.51,367.4,502.58,368.84,507.15z M387.96,222.68
			c-0.38-7.41-3.97-13.33-7.12-16.12C383.95,211.19,385.97,216.92,387.96,222.68z M383.46,131.6c7.32-1.44,3.42-8.08,1.5-11.62
			c-0.73-1.36-1.05-3.03-1.87-4.12c-2.79-3.72-7.67-5.78-11.25-7.87c1.68,3.2,6.02,4.28,7.87,7.87c1.56,3,2.05,6.99,1.5,11.62
			c-4.31,0.4-9.48,0.29-12.74,1.87c-1.31,0.64-3.55,2.92-3.37,3.75c1.88,0.11,2.96-1.1,4.87-1.5
			C374.31,130.69,379.42,132.4,383.46,131.6z M383.84,167.96c-0.09-0.71,0.42-0.83,0.37-1.5c-2.92-0.98-5.83,1.11-9.74,0.37
			c-0.05,0.92-0.06,1.81,0.37,2.25c1.78,0.45,2.01-1.37,3.75,0.37C379.77,167.55,381.35,168.27,383.84,167.96z M383.09,236.54
			c1.2-0.59,1.11-0.31,0-0.37c-1.1-0.05-3.56,0.02-4.88,1.5c-0.26,3.01,1.39,4.11,1.5,6.75c1.47,0.64,5.08,2.33,5.63-0.38
			c-1.34-0.04-2.58-0.17-3-1.12c0.26-2.64-0.18-4.57-1.5-5.63C381.59,237.07,382.58,236.8,383.09,236.54z M372.97,224.55
			c1.28,4.43,7.07,8.05,11.99,6.37c-5.69-2.2-5.99-7.54-9.74-11.24c-5.23-5.15-14.47-5.19-17.62-12c-1.34-2.88-0.36-6.44-3.75-8.24
			c-0.29,0.08-0.74,0.01-0.75,0.37c0.76,0.5,1.27,1.23,1.5,2.25c0.34,2.66-1.27,3.96-1.12,6
			C354.12,217.07,369.49,218.18,372.97,224.55z M380.84,155.21c1.06-0.31,0.97,0.53,1.87,0.38c-0.51-1.61-0.41-3.84-2.25-4.13
			C380.85,152.45,380.91,153.76,380.84,155.21z M380.09,188.57c0.83-1.97-1-3.77-1.88-5.62c-0.93-1.99-1.37-4.44-2.62-5.62
			C375.29,181.02,375.69,188.41,380.09,188.57z M370.34,140.59c1.32,0.96,5.53,2.79,6.75,0.38c-4.54-2.58-14.09-1.7-14.24,3
			C364.23,141.72,366.53,140.41,370.34,140.59z M371.84,425.82c0.65-1.9-1.48-4.25-1.12-7.12c-0.74-0.11-0.74,0.51-1.13,0.75
			c-0.62-2.12-1.08-4.42-2.62-5.62c-0.48,2.28,1.13,4.17,1.12,6.37c-0.02,5.47-3.96,7.85-5.99,10.87c-1.87,2.76-2.73,6.199-3.75,7.5
			c-0.71,0.899-2.22,1.76-3.37,2.62c-3.63,2.699-7.75,4.77-9.75,7.869c3.12-2.989,6.7-5.079,10.12-7.5
			c3.2-2.25,7.25-5.619,9.37-8.619c0.43-0.601,0.28-1.351,0.75-1.87C367.3,429.02,370.28,428.14,371.84,425.82z M368.84,185.57
			c0.54,1.12,2.15,2.64,3.75,1.5c-0.72-1.29-2.6-4.64-1.87-8.62c-0.08-0.29-0.32-0.44-0.75-0.38
			C370.25,181.23,369.37,183.23,368.84,185.57z M370.72,165.33c-0.38,0-0.75,0-1.13,0c0.42,1.59-0.88,4.88,0.75,5.25
			C371.21,169.57,370.48,166.96,370.72,165.33z M365.47,156.34c0.76,0.62,2.89,1.83,3.75,1.12c-2.23-0.4-1.61-3.64-2.25-5.62
			c-0.37,0-0.75,0-1.12,0C365.35,152.96,365.46,154.71,365.47,156.34z M367.72,170.58c0.69-1.08,0.53-4.52,0-5.62c-0.5,0-1,0-1.5,0
			c0.42,1.7-0.89,5.14,0.75,5.62C367.22,170.58,367.47,170.58,367.72,170.58z M359.47,169.08c0.1-0.77-1.45-1.74-1.49-1.12
			C358.74,168.07,358.71,168.97,359.47,169.08z M357.6,163.08c0.04-3.78-3.07-6.42-5.25-6.74C354.68,158,356.46,160.22,357.6,163.08
			z M344.11,449.43C342.16,451.08,345.31,448.75,344.11,449.43L344.11,449.43z M341.48,451.68c-0.5-0.05-2.06,0.59-1.12,0.75
			C340.8,452.25,341.21,452.03,341.48,451.68z M333.24,486.92c1.81,0.53,5.23,3.82,6.74,1.12c-1.08-1.42-3.6-1.39-4.87-2.62
			c-0.43-1.189-0.2-3.05-1.87-3C332.02,483.98,334.08,485.63,333.24,486.92z M332.86,491.04c0.66,1.22,2.09,2.37,3.75,1.5
			c-0.2-3.42-4.65-2.59-7.49-3.38C328.87,491.18,331.42,491.91,332.86,491.04z"/>
		<path fill="#FFFFFF" d="M539.76,217.05c0.07,3.67-2.779,5.52-4.88,8.25c0.811-1.7,2.44-5.81,3.75-8.25
			c-0.62-4.24-2.96-6.78-3.75-10.86C535.7,209.57,539.68,213.28,539.76,217.05z"/>
		<path fill="#FFFFFF" d="M537.13,239.54c-1.57-0.1-4.05,0.53-6.37,0.75c-0.319-1.18-1.42-1.58-1.5-3c3.62,0.12,5.78-1.21,7.12-3.37
			c1.26-0.01,0.771,1.74,1.5,2.25C537.86,237.29,535.75,238.26,537.13,239.54z"/>
		<path fill="#FFFFFF" d="M533.38,244.04c-0.85-0.64,0.061-2.66,1.5-2.25C534.16,242.32,533.77,243.18,533.38,244.04z"/>
		<path fill="#FFFFFF" d="M520.64,223.05c1.13-0.99,1.891-1.93,3-2.62c-2.09,4.97-9,6.9-7.12,14.62c-1.369-0.01-1.689-1.07-2.63-1.5
			C512.95,227.2,517.38,225.9,520.64,223.05z"/>
		<path fill="#FFFFFF" d="M488.03,264.28c0.689-2.39,4.31-1.48,3.75,1.5C489.4,266.41,490.41,263.65,488.03,264.28z"/>
		<path fill="#FFFFFF" d="M490.66,267.28C491.09,265.8,491.09,268.76,490.66,267.28L490.66,267.28z"/>
		<path fill="#FFFFFF" d="M491.03,274.4c-0.15,1.91-3.34,1.71-4.87,1.12C485.51,271.48,489.82,273.2,491.03,274.4z"/>
		<path fill="#FFFFFF" d="M486.91,268.78c0.41,1.78-1.22,1.53-2.62,1.5C483.88,268.49,485.5,268.75,486.91,268.78z"/>
		<path fill="#FFFFFF" d="M486.91,260.91c0,0.5,0,1,0,1.5c-2-0.07-1.43,1.32-4.12,1.12c0.4-1.4-0.94-1.07-0.75-2.25
			C482.88,260.47,485.68,260.15,486.91,260.91z"/>
		<path fill="#FFFFFF" d="M479.04,267.65c0.76-0.68,2.49-1.73,3.75-0.75c-1.45,0.43-0.87,2.89-1.5,4.13c-0.63,0-1.25,0-1.88,0
			C478.79,270.4,479.11,268.83,479.04,267.65z"/>
		<path fill="#FFFFFF" d="M482.79,274.4c-0.51,1.39-2.44,1.23-3.38,0.37C479.8,273.14,481.72,273.79,482.79,274.4z"/>
		<path fill="#FFFFFF" d="M478.29,258.28c-4.31,0.97-9.09-4.1-13.5-1.87c-0.63-0.61-1.87-0.62-2.24-1.5
			C469.01,252.91,473.76,256.23,478.29,258.28z"/>
		<path fill="#FFFFFF" d="M476.41,262.03c-0.66,1.39-0.47,3.56,1.13,3.75c-0.3,0.83-1.31,0.94-1.88,1.5c-2.05-0.6-3.72-1.49-5.99-3
			c-1.28-0.85-6.9-4.31-3.75-5.25C468.82,258.17,473.31,262.01,476.41,262.03z"/>
		<path fill="#FFFFFF" d="M475.66,269.53c-5.33,0.72-8.141-2.82-11.99-6c-2.3-1.9-4.75-4.05-7.12-5.62
			c-5.26-3.47-12.069-4.9-17.62-7.5c-3.05-1.43-5.729-3.48-9.37-4.12c-4.47-0.79-10.109-0.05-13.859,2.25
			c-0.53,4.65-0.75,8.62,3.74,8.99c-0.311,0.94-1.311,1.19-1.87,1.88c-3.7-1.91-3.7-7.4-3.37-12.37c-0.72-1.17-1.63,0.58-2.63,0.37
			c1.25-3.12,5.35-3.39,8.62-4.49c-8.54-2.71-13.771-8.72-26.23-7.5c4.51-1.53,9.5-2.63,14.61-1.87c6.14,0.9,11.41,6.25,15.37,8.62
			c-0.12,0.88-1.78,0.22-1.5,1.5c2.04,1.88,4.34,0.47,6.75,0.75c3.29,0.38,7.27,2.16,10.489,3.74c3.181,1.57,6.16,3.15,9.37,4.5
			c5.19,2.19,9.08,4.79,13.12,8.25C465.7,263.93,469.81,268.34,475.66,269.53z M420.94,245.17c-1.49-1.4-4.261-0.51-4.49,1.49
			C418.32,246.54,419.83,246.05,420.94,245.17z"/>
		<path fill="#FFFFFF" d="M464.79,219.68c0.54,1.1,0.08,3.94-0.75,4.87c-2.31,0.91-3.54-1.47-5.24-2.25
			c-1.56-0.71-3.38-0.52-4.87-1.12c-1.529-0.61-3.26-1.8-4.88-2.63c-3.24-1.66-6.31-3.49-9.37-5.62
			c-3.09-2.15-6.199-4.83-9.739-7.12c0.359-1.01,1.05-1.7,1.869-2.25C442.88,208.86,449.07,219.04,464.79,219.68z"/>
		<path fill="#FFFFFF" d="M425.82,254.16c0.67-1.77,1.97,0.24,3.37,0C428.41,255.28,427.22,253.66,425.82,254.16z"/>
		<path fill="#FFFFFF" d="M425.07,255.66c0.819-1.04,2.67,0.05,3.739,0C428.17,256.91,425.85,256.37,425.07,255.66z"/>
		<path fill="#FFFFFF" d="M425.07,254.16c0.76,1.21-2.13,0.53-0.75,1.12c-2.23,0.47-6.84,0.1-6.75-2.99
			C420.76,250.93,422.29,253.91,425.07,254.16z"/>
		<path d="M416.45,246.66c0.229-2,3-2.89,4.49-1.49C419.83,246.05,418.32,246.54,416.45,246.66z"/>
		<path fill="#FFFFFF" d="M413.07,257.53c-3.04,0.6-2.101-4.82-1.12-7.12C413.33,250.75,411.19,256.58,413.07,257.53z"/>
		<path fill="#FFFFFF" d="M407.82,263.53c1.359,3.27,1.439,7.22-1.49,8.62c3.05,7.38-1.2,12.4-8.25,12.74
			c1.82-1.85,5.91-1.11,6.75-4.12c0.62-2.23-0.72-4.22-1.88-6.37c-2.61,0.14-5.02,2.47-7.87,1.12c1.79-3.25,10.25-1.98,10.87-6.37
			c0.26-1.88-1.2-4.19-3.75-4.87C402.54,260.89,405.87,262.6,407.82,263.53z"/>
		<path fill="#FFFFFF" d="M404.08,207.68c1.79,4,5.2,16.01,0.37,19.12c-1.82,1.17-4.31,0.87-6.75,1.5c0.33-2.03,3.09-3.73,3.75-6
			c0.72-2.45,0.93-8.25,0.75-11.24c-0.44-7.65-4.25-13.36-8.24-17.62C398.12,195.13,401.74,202.48,404.08,207.68z"/>
		<path fill="#FFFFFF" d="M405.2,543.51c-2.97,1.13-4.29-2.05-5.62-3.75c-1.18,0.58-2.09,0.24-3-0.37
			C399.43,534.88,405.11,539.51,405.2,543.51z"/>
		<path fill="#FFFFFF" d="M404.45,269.9c-0.771,0.98-2.38,1.12-3.75,1.5c-0.43-1.56-1.93-2.06-3-3
			C400.12,265.15,402.94,266.79,404.45,269.9z"/>
		<path fill="#FFFFFF" d="M401.08,325.37c1.03,9.52-2.45,18.66-3.38,26.99c-4.46-4.88,0.75-13.7,1.5-20.61
			c0.63-5.75-1.12-10.24-1.12-16.12c0.44-0.06,0.32-0.68,0.37-1.13C399.06,317.98,400.68,321.69,401.08,325.37z"/>
		<path fill="#FFFFFF" d="M399.2,305.88c1.399,0.39,0.67,3.49,0.38,4.5c-3.31,1.09-7.91,2.79-12,1.88
			C390.13,308.81,400.05,312.72,399.2,305.88z"/>
		<path fill="#FFFFFF" d="M397.7,423.2c1.3-0.26,1.35,1.31,0.75,1.87C397.69,424.8,396.92,423.94,397.7,423.2z"/>
		<path fill="#FFFFFF" d="M392.08,544.64c2.96,0.16,5.36,0.891,5.25,4.12c-1.85,0.48-1.81-0.95-2.25-1.88
			C394.12,546.1,392.49,545.97,392.08,544.64z"/>
		<path fill="#FFFFFF" d="M395.83,387.22c1.05,13.67-0.25,24.58-11.99,26.61c2.47-5.09,6.5-7.94,7.12-15.37
			c0.5-6.06,0.48-14.57,0-21.36c-0.67-9.27-3.93-18.75-4.87-26.239c-0.13-1,0.16-2.101,0-3c-1.39-7.721-5.51-14.841-9.75-19.11
			c1.71-0.7,2.36,2.88,4.12,3.37c2.37,5.27,6.27,10.52,7.5,18.74c0.38,2.54,2,4.93,2.62,7.5c0.43,1.75,0.27,3.729,0.75,5.62
			C393.12,370.94,395.14,378.26,395.83,387.22z"/>
		<path fill="#FFFFFF" d="M389.08,136.85c2.47,0.16,4.19,1.05,4.13,3.74c-1.37,1.33-3.67,0.52-4.88-0.37
			c-2.61-0.46-4.39,0.95-5.99,0.37c0.85-1.64,3.41-1.58,5.99-1.5C389.18,138.94,388.34,137.11,389.08,136.85z"/>
		<path fill="#FFFFFF" d="M392.46,306.26c0.74-0.88,0.74,0.03,0,0.37c-5.67,0.75-9.7,2.21-15,1.88c-3.08-0.2-6.54-0.66-9.74-1.13
			c-8.11-1.18-12.79-6.08-21.36-3.75c1.6-1.8,4.46-2.57,6.74-2.62c4.56-0.09,9.71,2.91,15.37,4.12
			C376.31,306.82,384.36,307.58,392.46,306.26z"/>
		<path fill="#FFFFFF" d="M389.08,545.76c1.97-0.2,3.17,1.891,2.63,3C389.75,548.84,389.6,547.12,389.08,545.76z"/>
		<path fill="#FFFFFF" d="M389.08,290.89c-0.39,1.4,1.41,0.59,1.13,1.88c-1.57,1.2-2.88-0.45-3.75-1.13
			c0.13-4.53-4.56-6.14-3.37-10.49C385.61,283.87,388.24,286.48,389.08,290.89z"/>
		<path fill="#FFFFFF" d="M384.96,532.27c2.57,1.891,7.75,2.44,7.87,6.37c-3.66-0.92-7.89-1.85-10.87-4.12
			c-2.99-2.289-6.81-7.279-8.99-11.25c-1.15-2.069-2.32-5.25-2.63-7.869C375.21,519.09,379.68,528.38,384.96,532.27z"/>
		<path fill="#FFFFFF" d="M387.58,144.72c0.45,1.05,0.42,2.58,0.38,4.12c-1.83,2.32-5.88,1.94-6.37-0.75
			C381.14,145.65,383.99,143.2,387.58,144.72z M384.21,148.84c1.51,0.38,3.51,0.68,3.37-1.5
			C386.55,145.68,382.75,146.87,384.21,148.84z"/>
		<path fill="#FFFFFF" d="M387.96,548.38c0.17,1.17-0.8,1.2-1.87,1.13c0-0.38,0-0.75,0-1.13
			C386.58,547.9,387.47,547.9,387.96,548.38z"/>
		<path d="M387.58,147.34c0.14,2.18-1.86,1.88-3.37,1.5C382.75,146.87,386.55,145.68,387.58,147.34z"/>
		<path fill="#FFFFFF" d="M386.47,454.64c0.01-0.1,0.02-0.17,0.03-0.22C386.49,454.48,386.48,454.56,386.47,454.64z"/>
		<path fill="#FFFFFF" d="M386.45,454.76c-0.01,0.07-0.02,0.141-0.03,0.21C386.43,454.91,386.44,454.84,386.45,454.76z"/>
		<path fill="#FFFFFF" d="M386.39,455.14c0.01-0.04,0.01-0.08,0.02-0.12C386.41,455.06,386.4,455.1,386.39,455.14z"/>
		<path fill="#FFFFFF" d="M386.09,455.81c1.39,22.761-10.97,35.011-17.25,51.341c-1.44-4.57,1.9-8.641,3.75-11.99
			c2.06-3.72,4.08-7.48,6-11.24C382.58,476.09,384.79,467.03,386.09,455.81z"/>
		<path fill="#FFFFFF" d="M380.84,206.56c3.15,2.79,6.74,8.71,7.12,16.12C385.97,216.92,383.95,211.19,380.84,206.56z"/>
		<path fill="#FFFFFF" d="M384.96,119.98c1.92,3.54,5.82,10.18-1.5,11.62c-4.04,0.8-9.15-0.91-13.49,0c-1.91,0.4-2.99,1.61-4.87,1.5
			c-0.18-0.83,2.06-3.11,3.37-3.75c3.26-1.58,8.43-1.47,12.74-1.87c0.55-4.63,0.06-8.62-1.5-11.62c-1.85-3.59-6.19-4.67-7.87-7.87
			c3.58,2.09,8.46,4.15,11.25,7.87C383.91,116.95,384.23,118.62,384.96,119.98z"/>
		<path fill="#FFFFFF" d="M384.21,166.46c0.05,0.67-0.46,0.79-0.37,1.5c-2.49,0.31-4.07-0.41-5.25,1.49
			c-1.74-1.74-1.97,0.08-3.75-0.37c-0.43-0.44-0.42-1.33-0.37-2.25C378.38,167.57,381.29,165.48,384.21,166.46z"/>
		<path fill="#FFFFFF" d="M383.09,236.17c1.11,0.06,1.2-0.22,0,0.37c-0.51,0.26-1.5,0.53-2.25,0.75c1.32,1.06,1.76,2.99,1.5,5.63
			c0.42,0.95,1.66,1.08,3,1.12c-0.55,2.71-4.16,1.02-5.63,0.38c-0.11-2.64-1.76-3.74-1.5-6.75
			C379.53,236.19,381.99,236.12,383.09,236.17z"/>
		<path fill="#FFFFFF" d="M384.96,230.92c-4.92,1.68-10.71-1.94-11.99-6.37c-3.48-6.37-18.85-7.48-19.49-16.49
			c-0.15-2.04,1.46-3.34,1.12-6c-0.23-1.02-0.74-1.75-1.5-2.25c0.01-0.36,0.46-0.29,0.75-0.37c3.39,1.8,2.41,5.36,3.75,8.24
			c3.15,6.81,12.39,6.85,17.62,12C378.97,223.38,379.27,228.72,384.96,230.92z"/>
		<path fill="#FFFFFF" d="M382.71,155.59c-0.9,0.15-0.81-0.69-1.87-0.38c0.07-1.45,0.01-2.76-0.38-3.75
			C382.3,151.75,382.2,153.98,382.71,155.59z"/>
		<path fill="#FFFFFF" d="M378.21,182.95c0.88,1.85,2.71,3.65,1.88,5.62c-4.4-0.16-4.8-7.55-4.5-11.24
			C376.84,178.51,377.28,180.96,378.21,182.95z"/>
		<path fill="#FFFFFF" d="M377.09,140.97c-1.22,2.41-5.43,0.58-6.75-0.38c-3.81-0.18-6.11,1.13-7.49,3.38
			C363,139.27,372.55,138.39,377.09,140.97z"/>
		<path fill="#FFFFFF" d="M370.72,418.7c-0.36,2.87,1.77,5.22,1.12,7.12c-1.56,2.319-4.54,3.199-6.37,5.25
			c-0.47,0.52-0.32,1.27-0.75,1.87c-2.12,3-6.17,6.369-9.37,8.619c-3.42,2.421-7,4.511-10.12,7.5c2-3.1,6.12-5.17,9.75-7.869
			c1.15-0.86,2.66-1.721,3.37-2.62c1.02-1.301,1.88-4.74,3.75-7.5c2.03-3.021,5.97-5.4,5.99-10.87c0.01-2.2-1.6-4.09-1.12-6.37
			c1.54,1.2,2,3.5,2.62,5.62C369.98,419.21,369.98,418.59,370.72,418.7z M369.59,423.95c-1.78,2.03,1.8-0.69,0-0.38
			C369.57,423.58,369.62,423.92,369.59,423.95z M368.47,426.95c0.29-0.09,0.74-0.01,0.75-0.38
			C368.93,426.66,368.48,426.58,368.47,426.95z M368.47,417.58c0.1-0.86-0.09-1.41-0.75-1.5
			C367.81,416.74,367.34,417.95,368.47,417.58z"/>
		<path fill="#FFFFFF" d="M372.59,187.07c-1.6,1.14-3.21-0.38-3.75-1.5c0.53-2.34,1.41-4.34,1.13-7.5c0.43-0.06,0.67,0.09,0.75,0.38
			C369.99,182.43,371.87,185.78,372.59,187.07z"/>
		<path fill="#FFFFFF" d="M369.59,165.33c0.38,0,0.75,0,1.13,0c-0.24,1.63,0.49,4.24-0.38,5.25
			C368.71,170.21,370.01,166.92,369.59,165.33z"/>
		<path d="M369.59,423.57c1.8-0.311-1.78,2.41,0,0.38C369.62,423.92,369.57,423.58,369.59,423.57z"/>
		<path fill="#FFFFFF" d="M369.22,157.46c-0.86,0.71-2.99-0.5-3.75-1.12c-0.01-1.63-0.12-3.38,0.38-4.5c0.37,0,0.75,0,1.12,0
			C367.61,153.82,366.99,157.06,369.22,157.46z"/>
		<path d="M369.22,426.57c-0.01,0.37-0.46,0.29-0.75,0.38C368.48,426.58,368.93,426.66,369.22,426.57z"/>
		<path d="M367.72,416.08c0.66,0.09,0.85,0.64,0.75,1.5C367.34,417.95,367.81,416.74,367.72,416.08z"/>
		<path fill="#FFFFFF" d="M367.72,164.96c0.53,1.1,0.69,4.54,0,5.62c-0.25,0-0.5,0-0.75,0c-1.64-0.48-0.33-3.92-0.75-5.62
			C366.72,164.96,367.22,164.96,367.72,164.96z"/>
		<path fill="#FFFFFF" d="M357.98,167.96c0.04-0.62,1.59,0.35,1.49,1.12C358.71,168.97,358.74,168.07,357.98,167.96z"/>
		<path fill="#FFFFFF" d="M352.35,156.34c2.18,0.32,5.29,2.96,5.25,6.74C356.46,160.22,354.68,158,352.35,156.34z"/>
		<path fill="#FFFFFF" d="M344.11,449.43C345.31,448.75,342.16,451.08,344.11,449.43L344.11,449.43z"/>
		<path fill="#FFFFFF" d="M342.47,450.79c0.05-0.021,0.09-0.05,0.13-0.07C342.56,450.74,342.52,450.76,342.47,450.79z"/>
		<path fill="#FFFFFF" d="M340.36,452.43c-0.94-0.16,0.62-0.8,1.12-0.75C341.21,452.03,340.8,452.25,340.36,452.43z"/>
		<path fill="#FFFFFF" d="M339.98,488.04c-1.51,2.7-4.93-0.59-6.74-1.12c0.84-1.29-1.22-2.939,0-4.5c1.67-0.05,1.44,1.811,1.87,3
			C336.38,486.65,338.9,486.62,339.98,488.04z"/>
		<path fill="#FFFFFF" d="M336.61,492.54c-1.66,0.87-3.09-0.28-3.75-1.5c-1.44,0.87-3.99,0.14-3.74-1.88
			C331.96,489.95,336.41,489.12,336.61,492.54z"/>
	</g>
	<g>
	</g>
</g>
</svg>
